nColumns=19
nRows=62
DataType=double
version=3
OpenSimVersion=4.1
endheader
time	ground_force_calcn_r_vx	ground_force_calcn_r_vy	ground_force_calcn_r_vz	ground_force_calcn_r_px	ground_force_calcn_r_py	ground_force_calcn_r_pz	ground_force_calcn_r_mx	ground_force_calcn_r_my	ground_force_calcn_r_mz	ground_force_calcn_l_vx	ground_force_calcn_l_vy	ground_force_calcn_l_vz	ground_force_calcn_l_px	ground_force_calcn_l_py	ground_force_calcn_l_pz	ground_force_calcn_l_mx	ground_force_calcn_l_my	ground_force_calcn_l_mz
8.11	-2.63656	376.775	-59.4739	-0.242682	0	-0.385343	0.00122811	-0.175502	0.027703	-5.23679	437.131	61.2713	-0.232045	0	-0.869542	-0.00835036	0.697031	0.0977006
8.12	-2.79844	377.631	-59.7149	-0.241712	0	-0.384974	0.00146761	-0.198044	0.0313168	-5.50697	436.645	61.2405	-0.230904	0	-0.869747	-0.00900348	0.713881	0.100123
8.13	-2.95664	378.454	-59.9507	-0.240745	0	-0.384606	0.00171147	-0.21907	0.0347028	-5.75194	436.121	61.2163	-0.229751	0	-0.86996	-0.00961552	0.729065	0.102335
8.14	-3.11077	379.238	-60.1781	-0.239774	0	-0.384238	0.00196186	-0.239173	0.0379523	-5.98668	435.588	61.1969	-0.228579	0	-0.870179	-0.0102216	0.743715	0.104487
8.15	-3.26145	379.984	-60.3973	-0.238791	0	-0.383866	0.00222362	-0.259069	0.0411781	-6.22654	435.067	61.1797	-0.227384	0	-0.870406	-0.0108612	0.758904	0.106718
8.16	-3.411	380.703	-60.6107	-0.237792	0	-0.38349	0.00250376	-0.279445	0.0444897	-6.48543	434.581	61.1623	-0.226167	0	-0.870638	-0.0115726	0.775465	0.109138
8.17	-3.56391	381.405	-60.8218	-0.236772	0	-0.383104	0.00281157	-0.30089	0.0479823	-6.77465	434.144	61.1424	-0.224929	0	-0.870877	-0.0123881	0.793873	0.111805
8.18	-3.72697	382.098	-61.0343	-0.235725	0	-0.382707	0.00315896	-0.323864	0.0517323	-7.10243	433.767	61.1185	-0.223678	0	-0.871119	-0.0133324	0.81425	0.114729
8.19	-3.909	382.785	-61.2511	-0.234649	0	-0.382299	0.00355877	-0.34849	0.0557633	-7.47303	433.45	61.0903	-0.222425	0	-0.871363	-0.0144184	0.836292	0.117867
8.2	-4.11892	383.464	-61.474	-0.23355	0	-0.381881	0.00402358	-0.374588	0.0600511	-7.88523	433.183	61.0582	-0.221187	0	-0.871605	-0.0156413	0.859273	0.121117
8.21	-4.36386	384.122	-61.7033	-0.23243	0	-0.381455	0.00456436	-0.40177	0.0645383	-8.33037	432.951	61.0236	-0.219983	0	-0.871844	-0.0169754	0.882254	0.124352
8.22	-4.6479	384.737	-61.9372	-0.231301	0	-0.381028	0.00518997	-0.429607	0.0691607	-8.79127	432.736	60.9878	-0.218836	0	-0.872074	-0.0183726	0.904362	0.127457
8.23	-4.97075	385.277	-62.1709	-0.230176	0	-0.380602	0.00590426	-0.457631	0.0738466	-9.24377	432.519	60.9518	-0.217773	0	-0.872291	-0.0197646	0.924793	0.130325
8.24	-5.32687	385.702	-62.3964	-0.229071	0	-0.380188	0.00670221	-0.485286	0.0785065	-9.65988	432.284	60.9159	-0.216822	0	-0.872492	-0.0210725	0.943002	0.132885
8.25	-5.70513	385.973	-62.6031	-0.228005	0	-0.379788	0.00756675	-0.511918	0.0830309	-10.011	432.02	60.8802	-0.216014	0	-0.87267	-0.0222144	0.958657	0.135094
8.26	-6.08969	386.059	-62.7802	-0.227	0	-0.379413	0.00846787	-0.536825	0.0872975	-10.2708	431.722	60.8447	-0.215374	0	-0.872817	-0.0231117	0.971471	0.136914
8.27	-6.46187	385.953	-62.919	-0.226081	0	-0.379073	0.00936293	-0.559227	0.0911665	-10.4184	431.397	60.8096	-0.214931	0	-0.872929	-0.0236962	0.981193	0.138309
8.28	-6.80248	385.671	-63.0148	-0.22527	0	-0.378774	0.0102016	-0.578389	0.0945029	-10.4392	431.068	60.7759	-0.214707	0	-0.872998	-0.023918	0.987647	0.139248
8.29	-7.09365	385.252	-63.0671	-0.224596	0	-0.378528	0.0109323	-0.593729	0.0971955	-10.3253	430.769	60.7455	-0.214718	0	-0.873025	-0.0237478	0.990754	0.139712
8.3	-7.3195	384.743	-63.0784	-0.224078	0	-0.378344	0.0115055	-0.604779	0.0991531	-10.0749	430.548	60.7211	-0.214973	0	-0.873005	-0.0231781	0.990505	0.139693
8.31	-7.46621	384.193	-63.0531	-0.223734	0	-0.378227	0.0118775	-0.611187	0.100307	-9.69226	430.447	60.7059	-0.215477	0	-0.872938	-0.0222237	0.986987	0.139195
8.32	-7.52235	383.643	-62.9956	-0.223581	0	-0.378184	0.0120165	-0.612844	0.100631	-9.18598	430.5	60.7023	-0.216226	0	-0.872827	-0.0209178	0.980311	0.138228
8.33	-7.4794	383.125	-62.909	-0.223622	0	-0.378218	0.0119054	-0.609841	0.100136	-8.56796	430.722	60.7108	-0.217208	0	-0.872671	-0.0193053	0.9705	0.136793
8.34	-7.33252	382.658	-62.7933	-0.223864	0	-0.378329	0.0115426	-0.602369	0.0988473	-7.85149	431.112	60.7295	-0.218405	0	-0.872474	-0.0174374	0.957456	0.134874
8.35	-7.0806	382.25	-62.6453	-0.224301	0	-0.378518	0.010943	-0.590762	0.0968175	-7.0503	431.653	60.7537	-0.219793	0	-0.872238	-0.0153702	0.941035	0.132448
8.36	-6.72562	381.899	-62.4598	-0.224926	0	-0.378784	0.0101336	-0.575413	0.094109	-6.17845	432.319	60.7778	-0.221347	0	-0.871968	-0.0131632	0.921061	0.129488
8.37	-6.27214	381.599	-62.231	-0.225727	0	-0.379123	0.00914918	-0.556639	0.0907764	-5.25081	433.077	60.7952	-0.223035	0	-0.871669	-0.0108787	0.897254	0.125956
8.38	-5.72758	381.338	-61.9549	-0.22669	0	-0.379528	0.00803031	-0.534652	0.0868634	-4.28331	433.888	60.799	-0.224821	0	-0.871347	-0.00858167	0.8693	0.121812
8.39	-5.10156	381.099	-61.629	-0.227792	0	-0.379995	0.00682224	-0.509638	0.0824156	-3.2936	434.706	60.7822	-0.226668	0	-0.871007	-0.00634102	0.836921	0.117021
8.4	-4.40619	380.857	-61.2525	-0.229013	0	-0.380515	0.00557397	-0.481797	0.0774863	-2.30214	435.486	60.7372	-0.228534	0	-0.870653	-0.00422824	0.799839	0.111553
8.41	-3.65672	380.582	-60.8248	-0.230327	0	-0.381082	0.00433641	-0.451323	0.0721307	-1.33251	436.176	60.656	-0.230377	0	-0.870293	-0.00231489	0.757741	0.105374
8.42	-2.87137	380.233	-60.3457	-0.231703	0	-0.381682	0.00315975	-0.418422	0.0664065	-0.410893	436.722	60.5294	-0.232152	0	-0.869933	-0.000668494	0.710516	0.0984771
8.43	-2.07097	379.767	-59.8149	-0.23311	0	-0.382304	0.0020903	-0.383312	0.0603732	0.43581	437.068	60.3473	-0.233816	0	-0.86958	0.000656448	0.658343	0.0908994
8.44	-1.27929	379.134	-59.2316	-0.234513	0	-0.382937	0.00116851	-0.346304	0.0541026	1.18291	437.153	60.0985	-0.235331	0	-0.86924	0.00162804	0.601654	0.0827135
8.45	-0.522792	378.282	-58.5946	-0.235877	0	-0.383561	0.000425332	-0.307761	0.0476712	1.81038	436.915	59.771	-0.236666	0	-0.86892	0.00224173	0.541018	0.0740125
8.46	0.171666	377.149	-57.9025	-0.237164	0	-0.384165	-0.000122038	-0.268117	0.0411631	2.30441	436.286	59.3528	-0.237798	0	-0.868623	0.0025208	0.477256	0.0649264
8.47	0.778741	375.669	-57.154	-0.238341	0	-0.384733	-0.000472151	-0.227768	0.0346525	2.658	435.196	58.8321	-0.238716	0	-0.868357	0.00251304	0.411461	0.0556235
8.48	1.27671	373.763	-56.348	-0.239377	0	-0.385253	-0.000638844	-0.187024	0.0281955	2.86949	433.575	58.1991	-0.239419	0	-0.868121	0.00228268	0.344909	0.0462974
8.49	1.64963	371.348	-55.4829	-0.240249	0	-0.385714	-0.000648896	-0.146072	0.0218246	2.94027	431.354	57.4475	-0.239916	0	-0.867916	0.00190232	0.279082	0.037168
8.5	1.89023	368.331	-54.5557	-0.240944	0	-0.38611	-0.000538623	-0.104957	0.0155457	2.87323	428.477	56.5771	-0.240218	0	-0.867743	0.00144507	0.215499	0.028455
8.51	2.00118	364.621	-53.5619	-0.241454	0	-0.386434	-0.000348705	-0.0635351	0.00933315	2.67158	424.905	55.5956	-0.24034	0	-0.867602	0.000978793	0.155674	0.0203687
8.52	1.99412	360.133	-52.4963	-0.241783	0	-0.386687	-0.000119112	-0.0215113	0.00313568	2.33776	420.626	54.5189	-0.240302	0	-0.867493	0.000562148	0.101146	0.0131099
8.53	1.88575	354.813	-51.3559	-0.241944	0	-0.38687	0.000113518	0.0213589	-0.00309151	1.87272	415.653	53.371	-0.240122	0	-0.867419	0.00024068	0.0534192	0.00685918
8.54	1.69297	348.647	-50.1426	-0.241955	0	-0.386989	0.000316005	0.0650774	-0.00935946	1.27664	410.024	52.1818	-0.239824	0	-0.86738	4.31706e-05	0.0138653	0.00176457
8.55	1.42942	341.67	-48.866	-0.241836	0	-0.387051	0.000457005	0.109237	-0.0156232	0.551482	403.809	50.9845	-0.239433	0	-0.867381	-2.19559e-05	-0.0160767	-0.00202983
8.56	1.10428	333.968	-47.5451	-0.241611	0	-0.387062	0.000505808	0.152972	-0.0217777	-0.296239	397.109	49.8148	-0.238975	0	-0.86742	2.59195e-05	-0.0347452	-0.00435857
8.57	0.722575	325.675	-46.2068	-0.241299	0	-0.387031	0.000432875	0.195103	-0.0276812	-1.25377	390.061	48.7091	-0.238476	0	-0.867499	0.000129774	-0.040374	-0.00504173
8.58	0.286278	316.966	-44.8859	-0.240924	0	-0.386967	0.000211699	0.234393	-0.0331926	-2.3011	382.833	47.7029	-0.237968	0	-0.86762	0.000187448	-0.0311857	-0.00388589
8.59	-0.204303	308.063	-43.6234	-0.240504	0	-0.386875	-0.000178926	0.269797	-0.0382047	-3.41139	375.619	46.8302	-0.237482	0	-0.867784	4.98176e-05	-0.00548529	-0.000683875
8.6	-0.74975	299.224	-42.4629	-0.240064	0	-0.386764	-0.000753008	0.300524	-0.0426474	-4.55187	368.629	46.1208	-0.237051	0	-0.867991	-0.000473122	0.0383154	0.0047938
8.61	-1.34917	290.738	-41.4454	-0.239633	0	-0.386648	-0.00151279	0.325997	-0.0464716	-5.68574	362.069	45.5976	-0.23671	0	-0.868238	-0.00159474	0.101553	0.0127892
8.62	-1.9955	282.918	-40.6035	-0.239248	0	-0.386547	-0.00243855	0.345733	-0.0496184	-6.7738	356.124	45.2723	-0.236493	0	-0.868524	-0.00352216	0.185173	0.0235402
8.63	-2.67069	276.075	-39.9573	-0.238959	0	-0.386483	-0.00347526	0.359246	-0.0519949	-7.77619	350.946	45.1439	-0.23643	0	-0.868839	-0.00641895	0.289692	0.0372646
8.64	-3.34245	270.491	-39.5134	-0.23882	0	-0.386487	-0.00452215	0.365959	-0.0534594	-8.65592	346.641	45.1997	-0.236549	0	-0.869175	-0.0103691	0.415248	0.0541456
8.65	-3.96561	266.386	-39.2657	-0.238892	0	-0.386588	-0.0054366	0.365198	-0.0538307	-9.37991	343.272	45.4178	-0.236873	0	-0.869519	-0.0153501	0.56176	0.0743256
8.66	-4.49086	263.906	-39.2009	-0.239231	0	-0.386809	-0.00605834	0.35602	-0.0528835	-9.91965	340.852	45.7697	-0.237414	0	-0.869851	-0.0212145	0.728957	0.0978846
8.67	-4.87443	263.109	-39.3017	-0.239879	0	-0.387169	-0.00624607	0.337147	-0.0503611	-10.2528	339.351	46.2234	-0.23818	0	-0.870158	-0.0276872	0.916402	0.124824
8.68	-5.0824	263.957	-39.5451	-0.240864	0	-0.387679	-0.00591009	0.306944	-0.0459852	-10.3646	338.712	46.7481	-0.239169	0	-0.870422	-0.034378	1.12346	0.155057
8.69	-5.09236	266.33	-39.9023	-0.242189	0	-0.388337	-0.00503625	0.263395	-0.0394627	-10.2531	338.879	47.3204	-0.24037	0	-0.870631	-0.0408244	1.3493	0.188414
8.7	-4.89569	270.039	-40.3431	-0.243831	0	-0.389131	-0.00370039	0.204108	-0.0304932	-9.93015	339.816	47.9257	-0.241765	0	-0.870776	-0.046546	1.59283	0.224644
8.71	-4.4991	274.868	-40.8404	-0.245749	0	-0.390044	-0.00206994	0.126461	-0.0187898	-9.4149	341.491	48.5532	-0.243322	0	-0.870853	-0.051075	1.85256	0.263397
8.72	-3.92152	280.594	-41.3702	-0.247888	0	-0.391049	-0.000388379	0.0277895	-0.00409722	-8.72451	343.862	49.1876	-0.245	0	-0.870859	-0.0539536	2.12649	0.304183
